<svg xmlns="http://www.w3.org/2000/svg" version="1.1" xmlns:xlink="http://www.w3.org/1999/xlink" xmlns:svgjs="http://svgjs.dev/svgjs" width="100%" height="100%" viewBox="0 0 1000 600"><rect width="1000" height="600" x="0" y="0" fill="#ffff"/><g><circle r="166.66666666666666" cx="375.9285532633463" cy="398.15078000706114" fill="#336633" transform="matrix(0.5973376258222529,0,0,0.5973376258222529,0,62.16955227487246)"/><path d="M412.7939285937065 424.8336232863039L432.13220577661605 424.8336232863039Q429.4225651683912 447.9939198534463 415.0472086784407 460.57235678215295Q400.64332965577216 473.1507937108596 376.798492303394 473.1507937108596L376.798492303394 473.1507937108596Q350.9285551280268 473.1507937108596 335.32672973119566 454.6111474440585Q319.7249043343645 436.07150117725723 319.7249043343645 404.98194051446757L319.7249043343645 404.98194051446757L319.7249043343645 390.92033188441684Q319.7249043343645 370.5837660563718 326.99815017749415 355.12455332313147Q334.27139602062385 339.69386312260923 347.6199413327207 331.4223286343441Q360.93996411209946 323.15079414607897 378.50984426648336 323.15079414607897L378.50984426648336 323.15079414607897Q401.7557084317802 323.15079414607897 415.7887945291128 336.1285465328398Q429.85040315916353 349.1062989196006 432.13220577661605 372.09546029043406L432.13220577661605 372.09546029043406L412.7939285937065 372.09546029043406Q410.2839457145087 354.6396702669228 401.898321095371 346.82449630214813Q393.5412190089513 338.98079980465536 378.50984426648336 338.98079980465536L378.50984426648336 338.98079980465536Q360.0557655978366 338.98079980465536 349.5594735575553 352.64309297665193Q339.0917040499922 366.2768636159303 339.0917040499922 391.4337374733436L339.0917040499922 391.4337374733436L339.0917040499922 405.58091370154887Q339.0917040499922 429.34018345577255 349.0175454359104 443.3732695531051Q358.94338682182854 457.4063556504377 376.798492303394 457.4063556504377L376.798492303394 457.4063556504377Q392.8281556909975 457.4063556504377 401.4134380391623 450.133109807308Q409.97019785460907 442.8883864968965 412.7939285937065 424.8336232863039L412.7939285937065 424.8336232863039Z " fill="#cccccc" transform="matrix(0.5973376258222529,0,0,0.5973376258222529,0,62.16955227487246)"/><path d="M718.9975800219291 424.8336232863039L738.3358572048387 424.8336232863039Q735.626216596614 447.9939198534463 721.2508601066635 460.57235678215295Q706.8469810839948 473.1507937108596 683.0021437316167 473.1507937108596L683.0021437316167 473.1507937108596Q657.1322065562495 473.1507937108596 641.5303811594183 454.6111474440585Q625.9285557625872 436.07150117725723 625.9285557625872 404.98194051446757L625.9285557625872 404.98194051446757L625.9285557625872 390.92033188441684Q625.9285557625872 370.5837660563718 633.2018016057168 355.12455332313147Q640.4750474488466 339.69386312260923 653.8235927609435 331.4223286343441Q667.1436155403221 323.15079414607897 684.713495694706 323.15079414607897L684.713495694706 323.15079414607897Q707.9593598600029 323.15079414607897 721.9924459573355 336.1285465328398Q736.0540545873863 349.1062989196006 738.3358572048387 372.09546029043406L738.3358572048387 372.09546029043406L718.9975800219291 372.09546029043406Q716.4875971427315 354.6396702669228 708.1019725235938 346.82449630214813Q699.7448704371741 338.98079980465536 684.713495694706 338.98079980465536L684.713495694706 338.98079980465536Q666.2594170260593 338.98079980465536 655.763124985778 352.64309297665193Q645.2953554782149 366.2768636159303 645.2953554782149 391.4337374733436L645.2953554782149 391.4337374733436L645.2953554782149 405.58091370154887Q645.2953554782149 429.34018345577255 655.221196864133 443.3732695531051Q665.1470382500513 457.4063556504377 683.0021437316167 457.4063556504377L683.0021437316167 457.4063556504377Q699.0318071192202 457.4063556504377 707.6170894673851 450.133109807308Q716.1738492828317 442.8883864968965 718.9975800219291 424.8336232863039L718.9975800219291 424.8336232863039ZM847.1493195246026 387.92546594901046L847.1493195246026 403.6699040094324L783.8578194230151 403.6699040094324L783.8578194230151 455.4097783601668L857.3603862377023 455.4097783601668L857.3603862377023 471.15421642058874L764.6051098382601 471.15421642058874L764.6051098382601 325.1473714363499L856.3620975925668 325.1473714363499L856.3620975925668 341.0058996276444L783.8578194230151 341.0058996276444L783.8578194230151 387.92546594901046L847.1493195246026 387.92546594901046ZM963.8635234072956 387.92546594901046L963.8635234072956 403.6699040094324L900.6005458384263 403.6699040094324L900.6005458384263 455.4097783601668L974.1031126531135 455.4097783601668L974.1031126531135 471.15421642058874L881.3478362536713 471.15421642058874L881.3478362536713 325.1473714363499L973.0763014752599 325.1473714363499L973.0763014752599 341.0058996276444L900.6005458384263 341.0058996276444L900.6005458384263 387.92546594901046L963.8635234072956 387.92546594901046ZM998.0620401363643 325.1473714363499L1022.933688666596 325.1473714363499L1070.6518859040702 444.2859906000861L1118.3986056742629 325.1473714363499L1143.3558218026492 325.1473714363499L1143.3558218026492 471.15421642058874L1124.1031122178942 471.15421642058874L1124.1031122178942 414.3088087133045L1125.9000317791379 352.92831830383346L1077.9821768126365 471.15421642058874L1063.23602739735 471.15421642058874L1015.403740029003 353.24206616373317L1017.3147497211194 414.3088087133045L1017.3147497211194 471.15421642058874L998.0620401363643 471.15421642058874L998.0620401363643 325.1473714363499ZM1260.783089003296 325.1473714363499L1280.1213661862057 325.1473714363499L1280.1213661862057 424.43430782824976Q1280.035798588051 445.0846215161945 1267.1436137994447 458.20498656654604Q1254.2514290108384 471.3538741496158 1232.203511219704 472.9511359818325L1232.203511219704 472.9511359818325L1227.0979778631543 473.1507937108596Q1203.1105278471855 473.1507937108596 1188.8777840208259 460.23008638953513Q1174.645040194466 447.28085653549243 1174.445382465439 424.63396555727684L1174.445382465439 424.63396555727684L1174.445382465439 325.1473714363499L1193.4984343211668 325.1473714363499L1193.4984343211668 424.0349923701956Q1193.4984343211668 439.864998028772 1202.2263293329224 448.6499381059639Q1210.954224344678 457.4063556504377 1227.0979778631543 457.4063556504377L1227.0979778631543 457.4063556504377Q1243.4413891106574 457.4063556504377 1252.1122390569767 448.67846063868205Q1260.783089003296 439.97908815964456 1260.783089003296 424.12055996835005L1260.783089003296 424.12055996835005L1260.783089003296 325.1473714363499ZM1398.5469220319878 424.8336232863039L1417.913721747616 424.8336232863039Q1415.2040811393908 447.9939198534463 1400.8002021167222 460.57235678215295Q1386.424845626772 473.1507937108596 1362.5514857416756 473.1507937108596L1362.5514857416756 473.1507937108596Q1336.6815485663083 473.1507937108596 1321.0797231694773 454.6111474440585Q1305.5064203053644 436.07150117725723 1305.5064203053644 404.98194051446757L1305.5064203053644 404.98194051446757L1305.5064203053644 390.92033188441684Q1305.5064203053644 370.5837660563718 1312.779666148494 355.12455332313147Q1320.0529119916237 339.69386312260923 1333.3729347710023 331.4223286343441Q1346.7214800830993 323.15079414607897 1364.262837704765 323.15079414607897L1364.262837704765 323.15079414607897Q1387.5372244027799 323.15079414607897 1401.5703105001126 336.1285465328398Q1415.6033965974452 349.1062989196006 1417.913721747616 372.09546029043406L1417.913721747616 372.09546029043406L1398.5469220319878 372.09546029043406Q1396.0369391527902 354.6396702669228 1387.6798370663705 346.82449630214813Q1379.294212447233 338.98079980465536 1364.262837704765 338.98079980465536L1364.262837704765 338.98079980465536Q1345.8087590361183 338.98079980465536 1335.340989528555 352.64309297665193Q1324.8446974882736 366.2768636159303 1324.8446974882736 391.4337374733436L1324.8446974882736 391.4337374733436L1324.8446974882736 405.58091370154887Q1324.8446974882736 429.34018345577255 1334.770538874192 443.3732695531051Q1344.69638026011 457.4063556504377 1362.5514857416756 457.4063556504377L1362.5514857416756 457.4063556504377Q1378.6096716619973 457.4063556504377 1387.166431477444 450.133109807308Q1395.751713825609 442.8883864968965 1398.5469220319878 424.8336232863039L1398.5469220319878 424.8336232863039ZM1464.8332880689818 325.1473714363499L1464.8332880689818 471.15421642058874L1445.5805784842269 471.15421642058874L1445.5805784842269 325.1473714363499L1464.8332880689818 325.1473714363499Z " fill="#336633" transform="matrix(0.5973376258222529,0,0,0.5973376258222529,0,62.16955227487246)"/></g></svg>